<?xml version="1.0" encoding="utf-8"?>
<!-- Generator: Adobe Illustrator 24.0.1, SVG Export Plug-In . SVG Version: 6.00 Build 0)  -->
<svg version="1.1" id="Ebene_1" xmlns="http://www.w3.org/2000/svg" xmlns:xlink="http://www.w3.org/1999/xlink" x="0px" y="0px"
	 viewBox="0 0 556 617" style="enable-background:new 0 0 556 617;" xml:space="preserve">
<style type="text/css">
	.st0{clip-path:url(#SVGID_2_);fill:#55BEFF;}
</style>
<g>
	<defs>
		<rect id="SVGID_1_" x="0.43" y="0.36" width="548" height="616.28"/>
	</defs>
	<clipPath id="SVGID_2_">
		<use xlink:href="#SVGID_1_"  style="overflow:visible;"/>
	</clipPath>
	<path class="st0" d="M516.17,445.62c-8.14,27.57-17.57,54.72-20.37,87.87c-2.8,33.15,4.24,74.23,18.11,79.58
		c-10.57,6.37-22,4.15-32.02-6.2c0.51-47.23-6.13-94.73-18.4-131.59c23.07-15.66,31.11-83.05,35.38-139.87
		c-48.96-23.82-100.01,23.17-148.93,47.43c-96.78,48-193.05,73.33-289.83,121.33c-6.85,3.4-13.98,7.11-19.43,17.67
		c-5.44,10.57,9.21,45.8,12.76,60.31c-12.84,5.45-4.83,13.88-16.77,1.25c14.23-16.39-44.89-57.25-9.26-114.4
		c6.72-10.78,9.89,10.56,17.43,3.58c75.03-69.47,157.33-93.9,230.94-171.66c14.12-14.92,37.16-28.44,33.96-64.78
		c-25.22-1.47-119.65,73.31-144.58,82.57C77.04,351.5,86.45,299.12,2.79,224.69c4.66-66.4,87.27,44.1,127.3,57.16
		c28.64,9.35,58.12-25.63,90.98-55.95c5.75-5.3,12.31-15.72,11.45-30.4c-31.45,0.07-51.29-1.43-74.59-27.75
		c-10.39-11.74-10.25-47.44,0.21-58.83c15.94-17.36,31.14-15.03,52.78,1.71c2.98-8.84-2.82-19.39-7.4-22.14
		C150.7,56.84,60.71,64.81,6.35,70.87c-11.82,1.32-2.6-20.5-0.73-21.74c75.63-50,145.79-78.97,216.44,1.16
		c11.89,13.48,84.86,3.09,100.78,8.16c42.52,13.55,75.7,114.92,117.72,130.74c39.95,15.04,68.15-59.33,107.86-27.6
		C544.57,222.97,531.04,395.27,516.17,445.62"/>
</g>
</svg>
