<?xml version="1.0" encoding="utf-8"?>
<!-- Generator: Adobe Illustrator 24.0.1, SVG Export Plug-In . SVG Version: 6.00 Build 0)  -->
<svg version="1.1" id="Ebene_1" xmlns="http://www.w3.org/2000/svg" xmlns:xlink="http://www.w3.org/1999/xlink" x="0px" y="0px"
	 viewBox="0 0 556 617" style="enable-background:new 0 0 556 617;" xml:space="preserve">
<style type="text/css">
	.st0{fill:#FFEB00;}
</style>
<g>
	<path class="st0" d="M512.17,171.72c-8.08-27.57-17.45-54.72-20.22-87.87c-2.78-33.15,4.21-74.23,17.98-79.58
		c-10.49-6.37-21.84-4.15-31.78,6.2c0.51,47.23-6.08,94.73-18.26,131.59c22.9,15.66,30.89,83.05,35.12,139.87
		c-48.61,23.82-99.27-23.17-147.84-47.43c-96.07-48-191.64-73.33-287.71-121.33c-6.8-3.4-13.88-7.11-19.28-17.67
		c-5.4-10.57,9.15-45.8,12.67-60.31c-12.75-5.45-4.79-13.88-16.64-1.25c14.13,16.4-44.56,57.25-9.19,114.4
		c6.67,10.78,9.82-10.56,17.31-3.58c74.48,69.47,156.18,93.9,229.26,171.66c14.02,14.92,36.88,28.44,33.71,64.78
		c-25.04,1.47-118.77-73.31-143.52-82.57c-87.5-32.76-78.15,19.62-161.21,94.05c4.62,66.4,86.64-44.1,126.37-57.16
		c28.43-9.35,57.7,25.63,90.32,55.95c5.71,5.3,12.22,15.72,11.36,30.4c-31.22-0.07-50.92,1.43-74.05,27.75
		c-10.32,11.74-10.17,47.44,0.21,58.83c15.82,17.36,30.92,15.03,52.39-1.71c2.96,8.84-2.79,19.39-7.35,22.14
		C149.36,560.5,60.03,552.53,6.06,546.47c-11.74-1.32-2.58,20.5-0.72,21.74c75.08,50.01,144.73,78.97,214.86-1.16
		c11.8-13.48,84.24-3.08,100.05-8.16c42.21-13.55,75.15-114.92,116.86-130.73c39.66-15.04,67.65,59.33,107.07,27.6
		C540.36,394.37,526.92,222.07,512.17,171.72"/>
</g>
</svg>
