<?xml version="1.0" encoding="utf-8"?>
<!-- Generator: Adobe Illustrator 24.0.1, SVG Export Plug-In . SVG Version: 6.00 Build 0)  -->
<svg version="1.1" id="Ebene_1" xmlns="http://www.w3.org/2000/svg" xmlns:xlink="http://www.w3.org/1999/xlink" x="0px" y="0px"
	 viewBox="0 0 556 617" style="enable-background:new 0 0 556 617;" xml:space="preserve">
<g>
	<path d="M32.41,445.55c8.26,27.57,17.83,54.72,20.67,87.87s-4.31,74.23-18.38,79.58c10.73,6.37,22.32,4.15,32.48-6.2
		c-0.52-47.23,6.22-94.73,18.67-131.59c-23.4-15.66-31.57-83.05-35.9-139.87c49.68-23.82,101.46,23.17,151.1,47.43
		c98.19,48,195.87,73.33,294.06,121.33c6.95,3.4,14.18,7.11,19.71,17.67c5.53,10.57-9.35,45.8-12.95,60.31
		c13.03,5.45,4.9,13.88,17.01,1.25c-14.44-16.39,45.54-57.25,9.39-114.4c-6.82-10.78-10.04,10.56-17.69,3.58
		c-76.13-69.47-159.62-93.9-234.32-171.66c-14.33-14.92-37.7-28.44-34.45-64.78c25.59-1.47,121.39,73.31,146.69,82.57
		c89.43,32.76,79.88-19.62,164.77-94.05c-4.73-66.4-88.55,44.1-129.16,57.16c-29.06,9.35-58.97-25.63-92.31-55.95
		c-5.83-5.3-12.49-15.72-11.61-30.4c31.91,0.07,52.04-1.43,75.68-27.75c10.54-11.74,10.39-47.44-0.22-58.83
		c-16.17-17.36-31.6-15.03-53.55,1.71c-3.02-8.84,2.86-19.39,7.51-22.14c53.58-31.66,144.89-23.68,200.05-17.63
		c12,1.32,2.64-20.5,0.74-21.74c-76.73-50-147.92-78.97-219.6,1.16c-12.06,13.48-86.1,3.09-102.25,8.16
		c-43.14,13.55-76.81,114.92-119.44,130.74c-40.53,15.04-69.15-59.33-109.43-27.6C3.6,222.91,17.33,395.21,32.41,445.55"/>
</g>
</svg>
