<svg xmlns="http://www.w3.org/2000/svg" viewBox="0 0 404.4 87.1" xml:space="preserve">
  <path d="M268.9 38.7V36c-2 .8-4.1 1-6.8 1.5l-5.3.8c-2.3.3-8.6 1.3-8.6 7.1 0 4.2 3.1 6.2 7.6 6.2 7.8 0 13.1-5.7 13.1-12.8m12.8-14.5V61h-12.5v-7.8c-4.1 6.8-11 8.9-16.7 8.9-8.4 0-17-4.5-17-15.8 0-13.2 12-15.5 16.8-16.2l10.7-1.5c2-.4 6.2-1.2 6.2-5.6 0-4-4.2-5.5-8.7-5.5-8 0-10.2 3.9-11.4 7.9H237C239 13 248.4 7 261.6 7c11.6 0 20 4.7 20 17.1M120 39.4c0 10.7 5.6 15.8 13.3 15.8 8.2 0 13-5.8 13-15.8 0-10.6-5.6-15.6-13.3-15.6-8.2 0-13 5.8-13 15.6m39.5 0c0 17.3-10.8 27.6-26.4 27.6-15.4 0-26.2-10.3-26.2-27.6 0-17.1 10.8-27.4 26.2-27.4 15.6 0 26.4 10.3 26.4 27.4m55.3-34.6-12 6.1 5 40.6-29.9-27.9-12.3 6.3 42.6 37.8 12.1-6.2zM81 16.3 97.4 48 86 53.8 71 24.1c-3-5.5-7-6.7-11.9-4.1-5.4 2.8-7.4 8-3.4 16l13.5 26.4L58 68.1 42.9 38.5c-2.9-5.6-7-6.7-11.8-4.3-5.3 2.7-7.2 8-3.3 15.8l13.6 26.5L30 82.3 6 35.1l11-5.7 3.6 7c-.5-4.5 1.3-10.5 8.4-14.1 6.3-3.2 12.4-2.8 17.2 1 0-4.3 1.4-10.5 10-14.8C66.3 3.3 75.8 6 81 16.3"
        fill="black"/>
    <path d="M373.4 26.9v26.6m-16.6-6.3H390m-58.6 2.3H318a1 1 0 0 1-1-1v-2c0-.5.4-1 1-1h13.3c.6 0 1 .5 1 1v2c0 .5-.4 1-1 1zm-9 0c0 2.8-2.5 3.9-4.3 4.4-1 .2-6 1.2-3.8 6.3 4 0 4.9 0 6.5.6a10 10 0 0 0-.8 4.2c0 2.6 3.2 4.4 4.8 5.4 1.5-1 4.7-2.8 4.7-5.4a10 10 0 0 0-.8-4.2c1.7-.5 2.5-.5 6.5-.6 2.2-5.1-2.8-6.1-3.7-6.3-1.8-.5-4.3-1.6-4.3-4.4m1-4c0-8.6 4-14 10.3-14 6.3 0 6.3 4.1 6.3 5.1 0 3.4-3.7 7-1.1 9.5-6.5 0-5.1-5.1-9.2-5.1a4.6 4.6 0 0 0-4.4 4.6m-8.7 0c0-8.7-4-14-10.3-14-6.3 0-6.3 4-6.3 5 0 3.4 3.7 7 1.2 9.5 6.4 0 5-5.1 9.1-5.1 1.6 0 4.4 1.4 4.4 4.6m4 0c0-14.5-6-15-6-21.3 0-6.2 7.3-13.2 7.3-13.2s7.2 7 7.2 13.2c0 6.3-6 6.8-6 21.2M377 67s-3.6-4.7-3.6-8.6c0-4.1-.1-5.4-1.1-6.4s-3-.6-7.3 3.9c-4.4 4.4-8.5 6.6-11 4.2-2.4-2.5 0-8.3 0-12.2 0-3.9-2.6-9.7-.5-11.8 1.5-1.6 5.6-.3 8.3 2.4 2.6 2.7 6.6 7.3 8.4 5.5 1.9-1.8-3-6.9-4-7.9-.9-1-5.7-6.4-5.7-9 0-.8.1-5.3 3.9-5.3 3.7 0 6.6.8 9.2.8 2.5 0 5.4-.8 9.2-.8 3.7 0 3.8 4.5 3.8 5.3 0 2.6-4.8 8-5.7 9-1 1-5.8 6-4 7.9 1.8 1.8 5.8-2.8 8.5-5.5s6.7-4 8.3-2.4c2 2.1-.5 7.9-.5 11.8 0 3.9 2.4 9.7-.1 12.2-2.5 2.4-6.6.2-11-4.2-4.3-4.5-6.3-5-7.3-3.9-1 1-1 2.3-1 6.4 0 4 3.3 8.5 3.3 8.5"
          fill="none" stroke="black" stroke-width="2" stroke-miterlimit="10"/>
</svg>
