<?xml version="1.0" encoding="utf-8"?>
<!-- Generator: Adobe Illustrator 24.0.1, SVG Export Plug-In . SVG Version: 6.00 Build 0)  -->
<svg version="1.1" id="Ebene_1" xmlns="http://www.w3.org/2000/svg" xmlns:xlink="http://www.w3.org/1999/xlink" x="0px" y="0px"
	 viewBox="0 0 58 51" style="enable-background:new 0 0 58 51;" xml:space="preserve">
<style type="text/css">
	.st0{fill:none;stroke:#000000;stroke-width:2;}
</style>
<path class="st0" d="M29.11,29.58l15.4,16.41c0.78,0.84,2.1,0.86,2.91,0.05h0c0.77-0.77,0.79-2.02,0.04-2.82L31.98,26.71"/>
<path class="st0" d="M12.17,9.86C7,15.03,7,23.4,12.17,28.57c5.17,5.17,13.54,5.17,18.71,0c5.17-5.17,5.17-13.54,0-18.71
	C25.71,4.69,17.34,4.69,12.17,9.86z"/>
<path class="st0" d="M15.03,12.71c-3.59,3.59-3.59,9.4,0,12.99c3.59,3.59,9.4,3.59,12.99,0c3.59-3.59,3.59-9.4,0-12.99
	C24.43,9.12,18.62,9.12,15.03,12.71z"/>
</svg>
