<?xml version="1.0" encoding="utf-8"?>
<!-- Generator: Adobe Illustrator 24.0.1, SVG Export Plug-In . SVG Version: 6.00 Build 0)  -->
<svg version="1.1" id="Ebene_1" xmlns="http://www.w3.org/2000/svg" xmlns:xlink="http://www.w3.org/1999/xlink" x="0px" y="0px"
	 viewBox="0 0 400 400" style="enable-background:new 0 0 400 400;" xml:space="preserve">
<path d="M350,0H50C22.39,0,0,22.39,0,50v300c0,27.61,22.39,50,50,50h300c27.61,0,50-22.39,50-50V50C400,22.39,377.61,0,350,0z
	 M299.41,149.02c0.1,2.2,0.15,4.41,0.15,6.63c0,67.78-51.6,145.94-145.94,145.94c-28.97,0-55.92-8.49-78.63-23.08
	c4.02,0.47,8.1,0.71,12.24,0.71c24.03,0,46.14-8.2,63.7-21.96c-22.46-0.41-41.39-15.24-47.92-35.62c3.12,0.6,6.34,0.93,9.64,0.93
	c4.68,0,9.21-0.63,13.52-1.8c-23.47-4.7-41.15-25.44-41.15-50.28c0-0.22,0-0.44,0.01-0.65c6.91,3.85,14.82,6.16,23.23,6.42
	c-13.76-9.19-22.82-24.89-22.82-42.69c0-9.39,2.54-18.2,6.95-25.78c25.29,31.04,63.09,51.45,105.72,53.59
	c-0.88-3.75-1.33-7.66-1.33-11.69c0-28.32,22.97-51.29,51.3-51.29c14.75,0,28.08,6.24,37.44,16.21c11.68-2.3,22.66-6.57,32.57-12.45
	c-3.83,11.97-11.96,22.02-22.55,28.37c10.38-1.24,20.27-3.99,29.46-8.07C318.13,132.75,309.42,141.78,299.41,149.02z"/>
</svg>
